<?xml version="1.0" encoding="utf-8"?>
<svg version="1.1" id="Layer_1" xmlns="http://www.w3.org/2000/svg" xmlns:xlink="http://www.w3.org/1999/xlink" x="0px" y="0px"
	 viewBox="0 0 83.4 83.4" style="enable-background:new 0 0 83.4 83.4;" xml:space="preserve">
<path fill="#555d66" d="M76.3,7.1v51.2H35.7h-3.8l-2.1,3.2l-6,9l-6-9l-2.1-3.2h-3.8H7.1V7.1H76.3 M83.4,0H0v65.5h11.9l11.9,17.9l11.9-17.9h47.7
	L83.4,0L83.4,0z"/>
<path fill="#555d66" d="M37.2,20.8c-2.9,0.5-4.9,2.6-6.1,6.3c-0.6,1.8-0.9,3.6-0.9,5.3c0,0.2,0,0.4,0,0.5c0,0.1,0.1,0.5,0.1,1h6.8v13.7H23.8V35
	c0-6.2,1.2-11,3.7-14.3c2.5-3.4,5.7-5.3,9.7-5.8L37.2,20.8L37.2,20.8z"/>
<path fill="#555d66" d="M58.4,20.8c-2.3,0.4-4.1,1.7-5.2,3.9c-1.2,2.2-1.8,4.8-1.8,7.7c0,0.3,0,0.5,0,0.8c0,0.2,0.1,0.5,0.2,0.8h6.9v13.7H44.9V35
	c0-5,1-9.4,3.1-13.4c2.1-3.9,5.5-6.2,10.3-6.8L58.4,20.8L58.4,20.8z"/>
</svg>
